<svg
  width="25"
  height="24"
  viewBox="0 0 25 24"
  fill="none"
  xmlns="http://www.w3.org/2000/svg"
>
  <path
    d="M18.7344 23.3896C18.5685 23.7609 18.1996 23.9998 17.793 24C15.3461 24 13.3623 22.0162 13.3623 19.5693V18.8574H20.7588L18.7344 23.3896ZM8.21875 13.7139C11.0591 13.7139 13.3623 16.0171 13.3623 18.8574H3.30371C0.661418 18.8571 -0.908333 15.9045 0.569336 13.7139H8.21875ZM21.1807 17.1426H18.5049C15.6645 17.1426 13.3623 14.8403 13.3623 12L23.624 12L21.1807 17.1426ZM8.21875 6.85742C11.059 6.85742 13.3622 9.15972 13.3623 12H1.38574L4.44824 6.85742L8.21875 6.85742ZM21.1719 5.14258C23.8113 5.14272 25.4805 7.97801 24.2002 10.2861H18.5049C15.6645 10.2861 13.3623 7.98291 13.3623 5.14258H21.1719ZM8.73926 0C11.2923 -5.91221e-08 13.3623 2.07004 13.3623 4.62305V5.14258L5.24805 5.14258L7.96094 0.449219C8.12151 0.171448 8.41842 3.60321e-05 8.73926 0Z"
    fill="currentColor"
  />
</svg>
